PathFileType  4	(X/Y/Z) C:\Users\antoi\Documents\MyRepositories\mobilecap\ResultsAnalysis
DataRate	CameraRate	NumFrames	NumMarkers	Units	OrigDataRate	OrigDataStartFrame	OrigNumFrames
100.0	100.0	4	51	mm	100.0	229	261
Frame#	Time	r_knee			r_shank_antsup			r_ankle			r_calc			r_5meta			r_toe			L_knee			L_shank_antsup			L_ankle			L_calc			L_5meta			L_toe			r_sh2			r_sh3			r_sh4			L_sh2			L_sh3			r_thigh1			r_thigh2			r_thigh3			r_thigh4			r_thigh5			L_thigh1			L_thigh2			L_thigh3			L_thigh4			r.ASIS			r.PSIS			L.ASIS			L.PSIS			C7			R_Shoulder			L_Shoulder			R_Sternum			L_Sternum			R_humerus			R_elbow_med			R_elbow_lat			R_forearm			R_wrist_radius			R_wrist_ulna			L_humerus			L_elbow_med			L_elbow_lat			L_forearm			L_wrist_radius			L_wrist_ulna			R_HJC			L_HJC			R_HJC_reg			L_HJC_reg			
		X1	Y1	Z1	X2	Y2	Z2	X3	Y3	Z3	X4	Y4	Z4	X5	Y5	Z5	X6	Y6	Z6	X7	Y7	Z7	X8	Y8	Z8	X9	Y9	Z9	X10	Y10	Z10	X11	Y11	Z11	X12	Y12	Z12	X13	Y13	Z13	X14	Y14	Z14	X15	Y15	Z15	X16	Y16	Z16	X17	Y17	Z17	X18	Y18	Z18	X19	Y19	Z19	X20	Y20	Z20	X21	Y21	Z21	X22	Y22	Z22	X23	Y23	Z23	X24	Y24	Z24	X25	Y25	Z25	X26	Y26	Z26	X27	Y27	Z27	X28	Y28	Z28	X29	Y29	Z29	X30	Y30	Z30	X31	Y31	Z31	X32	Y32	Z32	X33	Y33	Z33	X34	Y34	Z34	X35	Y35	Z35	X36	Y36	Z36	X37	Y37	Z37	X38	Y38	Z38	X39	Y39	Z39	X40	Y40	Z40	X41	Y41	Z41	X42	Y42	Z42	X43	Y43	Z43	X44	Y44	Z44	X45	Y45	Z45	X46	Y46	Z46	X47	Y47	Z47	X48	Y48	Z48	X49	Y49	Z49	X50	Y50	Z50	X51	Y51	Z51	

229	2.28000000	-173.26742	942.49412	-405.45006	-139.71516	846.60275	-394.54116	-218.81829	512.50241	-401.29670	-292.88923	513.94294	-472.22610	-171.96940	376.86560	-356.60205	-89.31749	379.62471	-392.75247	-42.66366	991.45209	-832.07817	-55.28249	906.33539	-855.57777	-169.06685	590.75646	-808.99109	-254.60067	589.00104	-744.81132	-121.22591	457.23044	-841.30797	-48.99579	449.78961	-787.46394	-168.27488	740.67545	-364.91953	-208.37617	870.16252	-372.68005	-248.16348	761.39582	-365.60280	-138.85059	934.28219	-836.36733	-163.89523	814.50159	-834.54820	-124.36642	1266.83177	-406.90326	-109.15055	1159.24484	-404.71961	-159.05735	1127.25129	-375.25592	-234.52399	1246.06169	-410.72228	-210.87660	1134.39406	-396.72227	-62.35811	1286.62686	-806.80253	-4.67659	1158.78832	-813.47203	-160.07959	1243.86787	-835.66537	-108.17761	1117.15225	-842.04195	-98.02240	1468.84927	-472.62603	-271.24566	1507.22750	-535.82225	-101.17457	1487.85459	-713.64757	-278.77283	1517.63643	-645.58722	-104.34441	2030.08111	-596.47310	-53.79788	1987.00709	-443.76482	-82.50040	1973.79903	-753.89567	9.56136	1934.88147	-568.07485	4.48434	1928.00817	-629.87950	-5.06891	1925.49263	-319.21244	65.83068	1752.67547	-211.76030	28.56828	1821.06595	-160.35011	137.56621	1931.47079	-222.07224	172.57124	1992.17462	-281.26015	202.77858	1976.28637	-251.17504	-102.84090	1905.91696	-868.40908	-27.54962	1689.28086	-969.22922	-54.22022	1755.53084	-1022.40620	10.22277	1797.51413	-1029.77304	167.98367	1866.80221	-1009.94721	178.76461	1844.74686	-1042.98158	-188.83229	1363.81618	-497.77585	-194.59274	1386.94485	-703.35957	-161.05594	1398.02242	-508.85482	-171.92522	1413.05296	-667.35473	
230	2.29000000	-174.02324	937.20620	-405.61282	-140.47175	841.44415	-394.26663	-218.73116	507.15686	-401.17272	-292.34484	508.51596	-472.53387	-171.89925	371.64835	-356.17694	-89.13671	374.45628	-391.82396	-44.54082	985.03515	-831.61448	-55.83432	899.67792	-855.56027	-165.06340	582.18279	-810.07461	-250.65481	579.48294	-746.21635	-115.52559	449.13707	-842.13444	-43.43631	442.58070	-788.01517	-168.90135	735.56300	-364.62942	-209.22721	864.96372	-372.78392	-248.95715	756.17422	-365.84892	-139.83629	926.44308	-836.99439	-163.17067	806.28330	-835.45825	-124.14378	1261.78768	-406.31550	-109.04419	1154.01058	-404.21582	-159.25323	1122.16267	-374.93317	-234.29602	1241.05628	-410.69504	-210.95268	1129.31712	-396.71158	-62.14508	1280.44014	-807.09399	-5.50866	1152.06381	-813.64804	-160.49861	1238.21159	-834.83685	-109.55710	1111.08902	-841.13718	-97.30778	1463.85893	-472.34232	-270.43213	1501.93047	-536.12984	-99.95943	1482.69036	-713.53079	-277.74503	1512.36795	-645.70955	-103.72301	2025.15187	-595.45748	-53.40780	1981.91187	-443.05093	-82.08313	1969.24926	-752.77687	10.09524	1929.62252	-567.17076	5.00156	1923.04642	-629.03641	-4.47327	1920.33354	-318.69600	66.82311	1747.35431	-211.70821	29.73825	1815.77352	-159.95710	138.50401	1926.18265	-221.94746	173.39600	1986.78271	-281.46800	203.66659	1970.97923	-251.30062	-103.48980	1901.63619	-867.73698	-32.94561	1683.72017	-969.08258	-59.34750	1750.35211	-1022.04841	5.22961	1791.79097	-1029.39166	163.30169	1860.30753	-1009.85552	174.00311	1838.26067	-1042.69731	-187.94135	1358.68802	-497.71157	-193.27757	1381.69299	-703.32068	-160.10219	1392.72371	-508.78067	-170.68640	1407.83134	-667.39017	
231	2.30000000	-174.60350	931.13066	-405.51329	-140.99831	835.36905	-393.97859	-218.59011	500.89995	-401.02116	-291.74038	502.36545	-472.70669	-172.00284	365.44712	-355.89276	-89.07546	368.24010	-391.11033	-46.59422	977.50480	-831.13927	-56.34496	891.79953	-855.58982	-161.05336	572.49727	-811.09104	-246.66428	568.90520	-747.54120	-109.72831	439.99257	-843.57837	-37.88104	434.15906	-788.78360	-169.46213	729.35750	-364.40001	-209.83939	859.01856	-372.77489	-249.56890	749.89394	-366.09585	-140.88076	917.35671	-837.70191	-162.33268	796.80745	-836.65248	-124.17053	1255.64986	-405.71850	-109.25255	1147.87624	-403.49159	-159.69658	1116.12072	-374.69258	-234.28400	1235.04700	-411.03906	-211.15173	1123.34324	-396.93346	-61.99756	1273.07157	-807.31604	-6.57975	1144.13116	-813.72116	-161.06322	1231.50647	-833.82160	-111.21690	1103.84793	-839.88911	-96.59848	1457.93080	-471.97821	-269.63791	1495.64710	-536.41375	-98.60588	1476.60871	-713.45004	-276.70351	1506.07613	-645.89352	-103.16909	2019.25422	-594.56753	-53.15268	1975.98969	-442.22044	-81.54739	1963.80369	-751.77145	10.55930	1923.42469	-566.39253	5.53420	1917.15970	-628.14823	-3.91488	1914.39263	-318.17905	67.99433	1741.18378	-211.74674	31.00686	1809.65753	-159.50258	139.66998	1920.01404	-221.87365	174.31007	1980.65928	-281.42423	204.71968	1964.79527	-251.45814	-103.90087	1896.70312	-867.23984	-38.35180	1677.45173	-969.06044	-64.45231	1744.44107	-1021.57702	0.23811	1785.42638	-1028.88952	158.45151	1853.24523	-1009.55501	169.13995	1831.11486	-1042.09858	-186.99568	1352.59158	-497.64835	-191.83030	1375.47350	-703.28330	-159.11538	1386.48493	-508.63760	-169.36430	1401.61251	-667.44273	
232	2.31000000	-174.87841	924.19322	-405.21393	-141.30652	828.43497	-393.60689	-218.45537	493.80234	-400.76802	-291.16743	495.46440	-472.73013	-172.28718	358.19442	-355.69909	-89.20313	360.74779	-390.27494	-48.72361	968.80088	-830.70532	-56.76963	882.79191	-855.73873	-157.04796	561.84663	-812.19742	-242.65368	557.42536	-748.79507	-104.01676	429.88846	-845.35716	-32.57705	424.53439	-789.62411	-169.87136	722.27559	-364.21121	-210.47506	851.96309	-372.74396	-249.78776	742.84956	-366.07352	-141.85796	907.08670	-838.38975	-161.38178	786.26068	-838.09277	-124.42156	1248.46141	-405.07621	-109.82135	1140.78151	-402.65121	-160.44328	1109.03495	-374.62738	-234.43931	1228.06599	-411.93106	-211.53251	1116.43967	-397.43997	-61.83209	1264.50082	-807.41407	-7.80519	1134.94259	-813.59272	-161.58018	1223.76079	-832.80563	-113.04759	1095.60640	-838.70812	-95.93588	1451.06427	-471.66650	-268.81457	1488.41496	-536.46139	-97.15631	1469.50792	-713.17502	-275.54127	1498.77706	-646.11514	-102.70963	2012.44926	-593.70401	-52.97167	1969.13329	-441.41831	-80.90632	1957.45734	-750.73420	10.91539	1916.34235	-565.70530	6.05713	1910.36103	-627.28894	-3.38716	1907.57407	-317.69639	69.14089	1734.14784	-211.67853	32.38458	1802.63399	-159.14983	140.97104	1912.93444	-221.93160	175.27646	1973.83976	-281.15881	205.91489	1957.71670	-251.64046	-104.22566	1890.93428	-866.53385	-43.82732	1670.39127	-968.79793	-69.54137	1737.73683	-1020.89589	-4.79214	1778.42659	-1028.34244	153.49850	1845.63663	-1009.02572	163.99602	1823.16941	-1041.43791	-186.03465	1345.54074	-497.46731	-190.31610	1368.24903	-703.13385	-158.19981	1379.44159	-508.49524	-167.94574	1394.45340	-667.35186	
